<!DOCTYPE svg PUBLIC "-//W3C//DTD SVG 1.1//EN" "http://www.w3.org/Graphics/SVG/1.1/DTD/svg11.dtd">
<!-- Uploaded to: SVG Repo, www.svgrepo.com, Transformed by: SVG Repo Mixer Tools -->
<svg width="212px" height="212px" viewBox="-4.8 -4.8 57.60 57.60" xmlns="http://www.w3.org/2000/svg" fill="#779bee" stroke="#779bee" stroke-width="0.00048000000000000007" transform="matrix(1, 0, 0, 1, 0, 0)rotate(0)">
<g id="SVGRepo_bgCarrier" stroke-width="0"/>
<g id="SVGRepo_tracerCarrier" stroke-linecap="round" stroke-linejoin="round" stroke="#2e2e2e" stroke-width="6.912000000000001"> <title>value-sum-solid</title> <g id="Layer_2" data-name="Layer 2"> <g id="invisible_box" data-name="invisible box"> <rect width="48" height="48" fill="none"/> </g> <g id="Q3_icons" data-name="Q3 icons"> <path d="M41,4H7A2.9,2.9,0,0,0,4,7V41a2.9,2.9,0,0,0,3,3H41a2.9,2.9,0,0,0,3-3V7A2.9,2.9,0,0,0,41,4ZM35,18H31.1V16H19.7l6.4,6.6a2.1,2.1,0,0,1,0,2.8L19.7,32H31.1V30H35v4a2,2,0,0,1-2,2H15a2,2,0,0,1-1.4-3.4L22,24l-8.4-8.6A2,2,0,0,1,15,12H33a2,2,0,0,1,2,2Z"/> </g> </g> </g>
<g id="SVGRepo_iconCarrier"> <title>value-sum-solid</title> <g id="Layer_2" data-name="Layer 2"> <g id="invisible_box" data-name="invisible box"> <rect width="48" height="48" fill="none"/> </g> <g id="Q3_icons" data-name="Q3 icons"> <path d="M41,4H7A2.9,2.9,0,0,0,4,7V41a2.9,2.9,0,0,0,3,3H41a2.9,2.9,0,0,0,3-3V7A2.9,2.9,0,0,0,41,4ZM35,18H31.1V16H19.7l6.4,6.6a2.1,2.1,0,0,1,0,2.8L19.7,32H31.1V30H35v4a2,2,0,0,1-2,2H15a2,2,0,0,1-1.4-3.4L22,24l-8.4-8.6A2,2,0,0,1,15,12H33a2,2,0,0,1,2,2Z"/> </g> </g> </g>
</svg>